<svg xmlns="http://www.w3.org/2000/svg" xmlns:xlink="http://www.w3.org/1999/xlink" zoomAndPan="magnify" viewBox="0 0 375 187.499995" preserveAspectRatio="xMidYMid meet" version="1.0"><defs><g/><clipPath id="9f4e1b78e3"><path d="M 8.632812 58 L 66 58 L 66 136 L 8.632812 136 Z M 8.632812 58 " clip-rule="nonzero"/></clipPath><clipPath id="2a213137c5"><path d="M 70 48.460938 L 73.710938 48.460938 L 73.710938 158.417969 L 70 158.417969 Z M 70 48.460938 " clip-rule="nonzero"/></clipPath></defs><g clip-path="url(#9f4e1b78e3)"><path fill="#000000" d="M 8.675781 78.25 L 8.675781 128.351562 C 8.675781 132.28125 11.898438 135.5 15.832031 135.5 L 40.761719 135.5 C 36.804688 130.347656 34.453125 123.898438 34.453125 116.90625 C 34.453125 100.019531 48.15625 86.332031 65.058594 86.332031 L 65.058594 58.234375 L 54.0625 58.234375 C 51.664062 58.234375 49.441406 59.515625 48.242188 61.589844 L 42.742188 71.105469 L 15.832031 71.105469 C 11.898438 71.105469 8.675781 74.320312 8.675781 78.25 Z M 17.0625 78.335938 C 17.0625 77.765625 17.53125 77.300781 18.101562 77.300781 L 34.359375 77.300781 C 34.929688 77.300781 35.394531 77.769531 35.394531 78.335938 L 35.394531 82.484375 C 35.394531 83.054688 34.925781 83.519531 34.359375 83.519531 L 18.101562 83.519531 C 17.53125 83.519531 17.066406 83.050781 17.066406 82.484375 L 17.066406 78.335938 Z M 17.0625 78.335938 " fill-opacity="1" fill-rule="nonzero"/></g><path fill="#000000" d="M 62.042969 96.863281 C 61.101562 97 60.179688 97.203125 59.285156 97.46875 C 61.777344 99.117188 63.421875 101.941406 63.421875 105.152344 C 63.421875 110.238281 59.292969 114.363281 54.199219 114.363281 C 50.777344 114.363281 47.792969 112.496094 46.203125 109.730469 C 45.738281 110.996094 45.402344 112.320312 45.199219 113.6875 C 43.390625 126.101562 52.980469 136.753906 65.058594 136.753906 L 65.058594 142.574219 C 58.136719 142.574219 51.632812 139.882812 46.742188 135 C 41.851562 130.113281 39.15625 123.613281 39.15625 116.703125 C 39.15625 109.789062 41.851562 103.292969 46.742188 98.40625 C 51.632812 93.519531 58.136719 90.828125 65.058594 90.828125 L 65.058594 96.648438 C 64.070312 96.644531 63.0625 96.714844 62.042969 96.863281 Z M 62.042969 96.863281 " fill-opacity="1" fill-rule="nonzero"/><g clip-path="url(#2a213137c5)"><path fill="#000000" d="M 70.804688 48.460938 L 73.671875 48.460938 L 73.671875 158.425781 L 70.804688 158.425781 Z M 70.804688 48.460938 " fill-opacity="1" fill-rule="nonzero"/></g><g fill="#000000" fill-opacity="1"><g transform="translate(73.800547, 97.296418)"><g><path d="M 13.125 -44.390625 L 13.125 -25.203125 L 38.390625 -25.203125 L 38.390625 -20.734375 L 13.125 -20.734375 L 13.125 0 L 7.953125 0 L 7.953125 -48.859375 L 41.453125 -48.859375 L 41.453125 -44.390625 Z M 13.125 -44.390625 "/></g></g></g><g fill="#000000" fill-opacity="1"><g transform="translate(111.141615, 97.296418)"><g><path d="M 21.921875 0.34375 C 18.378906 0.34375 15.1875 -0.457031 12.34375 -2.0625 C 9.507812 -3.664062 7.273438 -5.882812 5.640625 -8.71875 C 4.015625 -11.5625 3.203125 -14.773438 3.203125 -18.359375 C 3.203125 -21.941406 4.015625 -25.148438 5.640625 -27.984375 C 7.273438 -30.828125 9.507812 -33.039062 12.34375 -34.625 C 15.1875 -36.207031 18.378906 -37 21.921875 -37 C 25.453125 -37 28.632812 -36.207031 31.46875 -34.625 C 34.3125 -33.039062 36.535156 -30.828125 38.140625 -27.984375 C 39.742188 -25.148438 40.546875 -21.941406 40.546875 -18.359375 C 40.546875 -14.773438 39.742188 -11.5625 38.140625 -8.71875 C 36.535156 -5.882812 34.3125 -3.664062 31.46875 -2.0625 C 28.632812 -0.457031 25.453125 0.34375 21.921875 0.34375 Z M 21.921875 -4.046875 C 24.523438 -4.046875 26.859375 -4.640625 28.921875 -5.828125 C 30.992188 -7.015625 32.613281 -8.703125 33.78125 -10.890625 C 34.945312 -13.078125 35.53125 -15.566406 35.53125 -18.359375 C 35.53125 -21.148438 34.945312 -23.640625 33.78125 -25.828125 C 32.613281 -28.015625 30.992188 -29.703125 28.921875 -30.890625 C 26.859375 -32.078125 24.523438 -32.671875 21.921875 -32.671875 C 19.304688 -32.671875 16.960938 -32.078125 14.890625 -30.890625 C 12.828125 -29.703125 11.203125 -28.015625 10.015625 -25.828125 C 8.828125 -23.640625 8.234375 -21.148438 8.234375 -18.359375 C 8.234375 -15.566406 8.828125 -13.078125 10.015625 -10.890625 C 11.203125 -8.703125 12.828125 -7.015625 14.890625 -5.828125 C 16.960938 -4.640625 19.304688 -4.046875 21.921875 -4.046875 Z M 21.921875 -4.046875 "/></g></g></g><g fill="#000000" fill-opacity="1"><g transform="translate(148.063912, 97.296418)"><g><path d="M 26.25 -2.234375 C 25.3125 -1.398438 24.15625 -0.757812 22.78125 -0.3125 C 21.414062 0.125 19.988281 0.34375 18.5 0.34375 C 15.050781 0.34375 12.394531 -0.582031 10.53125 -2.4375 C 8.675781 -4.300781 7.75 -6.929688 7.75 -10.328125 L 7.75 -32.53125 L 1.1875 -32.53125 L 1.1875 -36.71875 L 7.75 -36.71875 L 7.75 -44.734375 L 12.703125 -44.734375 L 12.703125 -36.71875 L 23.875 -36.71875 L 23.875 -32.53125 L 12.703125 -32.53125 L 12.703125 -10.609375 C 12.703125 -8.421875 13.25 -6.753906 14.34375 -5.609375 C 15.4375 -4.472656 17.003906 -3.90625 19.046875 -3.90625 C 20.078125 -3.90625 21.066406 -4.066406 22.015625 -4.390625 C 22.972656 -4.722656 23.800781 -5.191406 24.5 -5.796875 Z M 26.25 -2.234375 "/></g></g></g><g fill="#000000" fill-opacity="1"><g transform="translate(169.561197, 97.296418)"><g><path d="M 21.921875 0.34375 C 18.378906 0.34375 15.1875 -0.457031 12.34375 -2.0625 C 9.507812 -3.664062 7.273438 -5.882812 5.640625 -8.71875 C 4.015625 -11.5625 3.203125 -14.773438 3.203125 -18.359375 C 3.203125 -21.941406 4.015625 -25.148438 5.640625 -27.984375 C 7.273438 -30.828125 9.507812 -33.039062 12.34375 -34.625 C 15.1875 -36.207031 18.378906 -37 21.921875 -37 C 25.453125 -37 28.632812 -36.207031 31.46875 -34.625 C 34.3125 -33.039062 36.535156 -30.828125 38.140625 -27.984375 C 39.742188 -25.148438 40.546875 -21.941406 40.546875 -18.359375 C 40.546875 -14.773438 39.742188 -11.5625 38.140625 -8.71875 C 36.535156 -5.882812 34.3125 -3.664062 31.46875 -2.0625 C 28.632812 -0.457031 25.453125 0.34375 21.921875 0.34375 Z M 21.921875 -4.046875 C 24.523438 -4.046875 26.859375 -4.640625 28.921875 -5.828125 C 30.992188 -7.015625 32.613281 -8.703125 33.78125 -10.890625 C 34.945312 -13.078125 35.53125 -15.566406 35.53125 -18.359375 C 35.53125 -21.148438 34.945312 -23.640625 33.78125 -25.828125 C 32.613281 -28.015625 30.992188 -29.703125 28.921875 -30.890625 C 26.859375 -32.078125 24.523438 -32.671875 21.921875 -32.671875 C 19.304688 -32.671875 16.960938 -32.078125 14.890625 -30.890625 C 12.828125 -29.703125 11.203125 -28.015625 10.015625 -25.828125 C 8.828125 -23.640625 8.234375 -21.148438 8.234375 -18.359375 C 8.234375 -15.566406 8.828125 -13.078125 10.015625 -10.890625 C 11.203125 -8.703125 12.828125 -7.015625 14.890625 -5.828125 C 16.960938 -4.640625 19.304688 -4.046875 21.921875 -4.046875 Z M 21.921875 -4.046875 "/></g></g></g><g fill="#000000" fill-opacity="1"><g transform="translate(206.483491, 97.296418)"><g><path d="M 6.90625 -51.796875 L 11.859375 -51.796875 L 11.859375 0 L 6.90625 0 Z M 6.90625 -51.796875 "/></g></g></g><g fill="#000000" fill-opacity="1"><g transform="translate(218.418649, 97.296418)"><g><path d="M 21.921875 0.34375 C 18.378906 0.34375 15.1875 -0.457031 12.34375 -2.0625 C 9.507812 -3.664062 7.273438 -5.882812 5.640625 -8.71875 C 4.015625 -11.5625 3.203125 -14.773438 3.203125 -18.359375 C 3.203125 -21.941406 4.015625 -25.148438 5.640625 -27.984375 C 7.273438 -30.828125 9.507812 -33.039062 12.34375 -34.625 C 15.1875 -36.207031 18.378906 -37 21.921875 -37 C 25.453125 -37 28.632812 -36.207031 31.46875 -34.625 C 34.3125 -33.039062 36.535156 -30.828125 38.140625 -27.984375 C 39.742188 -25.148438 40.546875 -21.941406 40.546875 -18.359375 C 40.546875 -14.773438 39.742188 -11.5625 38.140625 -8.71875 C 36.535156 -5.882812 34.3125 -3.664062 31.46875 -2.0625 C 28.632812 -0.457031 25.453125 0.34375 21.921875 0.34375 Z M 21.921875 -4.046875 C 24.523438 -4.046875 26.859375 -4.640625 28.921875 -5.828125 C 30.992188 -7.015625 32.613281 -8.703125 33.78125 -10.890625 C 34.945312 -13.078125 35.53125 -15.566406 35.53125 -18.359375 C 35.53125 -21.148438 34.945312 -23.640625 33.78125 -25.828125 C 32.613281 -28.015625 30.992188 -29.703125 28.921875 -30.890625 C 26.859375 -32.078125 24.523438 -32.671875 21.921875 -32.671875 C 19.304688 -32.671875 16.960938 -32.078125 14.890625 -30.890625 C 12.828125 -29.703125 11.203125 -28.015625 10.015625 -25.828125 C 8.828125 -23.640625 8.234375 -21.148438 8.234375 -18.359375 C 8.234375 -15.566406 8.828125 -13.078125 10.015625 -10.890625 C 11.203125 -8.703125 12.828125 -7.015625 14.890625 -5.828125 C 16.960938 -4.640625 19.304688 -4.046875 21.921875 -4.046875 Z M 21.921875 -4.046875 "/></g></g></g><g fill="#000000" fill-opacity="1"><g transform="translate(255.340943, 97.296418)"><g><path d="M 26.25 -2.234375 C 25.3125 -1.398438 24.15625 -0.757812 22.78125 -0.3125 C 21.414062 0.125 19.988281 0.34375 18.5 0.34375 C 15.050781 0.34375 12.394531 -0.582031 10.53125 -2.4375 C 8.675781 -4.300781 7.75 -6.929688 7.75 -10.328125 L 7.75 -32.53125 L 1.1875 -32.53125 L 1.1875 -36.71875 L 7.75 -36.71875 L 7.75 -44.734375 L 12.703125 -44.734375 L 12.703125 -36.71875 L 23.875 -36.71875 L 23.875 -32.53125 L 12.703125 -32.53125 L 12.703125 -10.609375 C 12.703125 -8.421875 13.25 -6.753906 14.34375 -5.609375 C 15.4375 -4.472656 17.003906 -3.90625 19.046875 -3.90625 C 20.078125 -3.90625 21.066406 -4.066406 22.015625 -4.390625 C 22.972656 -4.722656 23.800781 -5.191406 24.5 -5.796875 Z M 26.25 -2.234375 "/></g></g></g><g fill="#000000" fill-opacity="1"><g transform="translate(276.838223, 97.296418)"><g><path d="M 16.75 0.34375 C 13.769531 0.34375 10.921875 -0.0820312 8.203125 -0.9375 C 5.484375 -1.800781 3.351562 -2.882812 1.8125 -4.1875 L 4.046875 -8.09375 C 5.578125 -6.882812 7.503906 -5.894531 9.828125 -5.125 C 12.160156 -4.363281 14.582031 -3.984375 17.09375 -3.984375 C 20.445312 -3.984375 22.925781 -4.503906 24.53125 -5.546875 C 26.132812 -6.597656 26.9375 -8.078125 26.9375 -9.984375 C 26.9375 -11.328125 26.492188 -12.382812 25.609375 -13.15625 C 24.734375 -13.925781 23.617188 -14.507812 22.265625 -14.90625 C 20.910156 -15.300781 19.117188 -15.679688 16.890625 -16.046875 C 13.910156 -16.609375 11.515625 -17.179688 9.703125 -17.765625 C 7.890625 -18.347656 6.34375 -19.335938 5.0625 -20.734375 C 3.78125 -22.128906 3.140625 -24.054688 3.140625 -26.515625 C 3.140625 -29.585938 4.414062 -32.101562 6.96875 -34.0625 C 9.53125 -36.019531 13.09375 -37 17.65625 -37 C 20.03125 -37 22.40625 -36.679688 24.78125 -36.046875 C 27.15625 -35.421875 29.109375 -34.597656 30.640625 -33.578125 L 28.484375 -29.59375 C 25.453125 -31.6875 21.84375 -32.734375 17.65625 -32.734375 C 14.488281 -32.734375 12.101562 -32.175781 10.5 -31.0625 C 8.894531 -29.945312 8.09375 -28.476562 8.09375 -26.65625 C 8.09375 -25.257812 8.546875 -24.144531 9.453125 -23.3125 C 10.359375 -22.476562 11.484375 -21.863281 12.828125 -21.46875 C 14.179688 -21.070312 16.046875 -20.660156 18.421875 -20.234375 C 21.359375 -19.679688 23.707031 -19.125 25.46875 -18.5625 C 27.238281 -18.007812 28.75 -17.054688 30 -15.703125 C 31.257812 -14.359375 31.890625 -12.5 31.890625 -10.125 C 31.890625 -6.90625 30.550781 -4.351562 27.875 -2.46875 C 25.207031 -0.59375 21.5 0.34375 16.75 0.34375 Z M 16.75 0.34375 "/></g></g></g><g fill="#000000" fill-opacity="1"><g transform="translate(82.148228, 127.394226)"><g><path d="M 7.90625 0.109375 C 6.59375 0.109375 5.410156 -0.175781 4.359375 -0.75 C 3.304688 -1.332031 2.476562 -2.132812 1.875 -3.15625 C 1.28125 -4.1875 0.984375 -5.34375 0.984375 -6.625 C 0.984375 -7.894531 1.28125 -9.039062 1.875 -10.0625 C 2.476562 -11.09375 3.304688 -11.894531 4.359375 -12.46875 C 5.421875 -13.050781 6.609375 -13.34375 7.921875 -13.34375 C 8.898438 -13.34375 9.804688 -13.175781 10.640625 -12.84375 C 11.472656 -12.519531 12.179688 -12.046875 12.765625 -11.421875 L 11.875 -10.53125 C 10.84375 -11.570312 9.535156 -12.09375 7.953125 -12.09375 C 6.910156 -12.09375 5.957031 -11.851562 5.09375 -11.375 C 4.238281 -10.894531 3.566406 -10.238281 3.078125 -9.40625 C 2.597656 -8.582031 2.359375 -7.65625 2.359375 -6.625 C 2.359375 -5.582031 2.597656 -4.644531 3.078125 -3.8125 C 3.566406 -2.988281 4.238281 -2.335938 5.09375 -1.859375 C 5.957031 -1.378906 6.910156 -1.140625 7.953125 -1.140625 C 9.546875 -1.140625 10.851562 -1.664062 11.875 -2.71875 L 12.765625 -1.828125 C 12.179688 -1.203125 11.46875 -0.722656 10.625 -0.390625 C 9.789062 -0.0546875 8.882812 0.109375 7.90625 0.109375 Z M 7.90625 0.109375 "/></g></g></g><g fill="#000000" fill-opacity="1"><g transform="translate(107.021134, 127.394226)"><g><path d="M 13.21875 -13.234375 L 13.21875 0 L 11.828125 0 L 11.828125 -6.109375 L 3.546875 -6.109375 L 3.546875 0 L 2.15625 0 L 2.15625 -13.234375 L 3.546875 -13.234375 L 3.546875 -7.328125 L 11.828125 -7.328125 L 11.828125 -13.234375 Z M 13.21875 -13.234375 "/></g></g></g><g fill="#000000" fill-opacity="1"><g transform="translate(133.670246, 127.394226)"><g><path d="M 10.453125 -3.53125 L 3.078125 -3.53125 L 1.5 0 L 0.03125 0 L 6.09375 -13.234375 L 7.46875 -13.234375 L 13.515625 0 L 12.046875 0 Z M 9.9375 -4.671875 L 6.765625 -11.78125 L 3.59375 -4.671875 Z M 9.9375 -4.671875 "/></g></g></g><g fill="#000000" fill-opacity="1"><g transform="translate(158.505358, 127.394226)"><g><path d="M 11.1875 0 L 8.171875 -4.25 C 7.828125 -4.21875 7.472656 -4.203125 7.109375 -4.203125 L 3.546875 -4.203125 L 3.546875 0 L 2.15625 0 L 2.15625 -13.234375 L 7.109375 -13.234375 C 8.796875 -13.234375 10.117188 -12.828125 11.078125 -12.015625 C 12.035156 -11.210938 12.515625 -10.109375 12.515625 -8.703125 C 12.515625 -7.660156 12.253906 -6.785156 11.734375 -6.078125 C 11.210938 -5.367188 10.460938 -4.851562 9.484375 -4.53125 L 12.71875 0 Z M 7.078125 -5.390625 C 8.378906 -5.390625 9.375 -5.675781 10.0625 -6.25 C 10.757812 -6.832031 11.109375 -7.648438 11.109375 -8.703125 C 11.109375 -9.765625 10.757812 -10.582031 10.0625 -11.15625 C 9.375 -11.738281 8.378906 -12.03125 7.078125 -12.03125 L 3.546875 -12.03125 L 3.546875 -5.390625 Z M 7.078125 -5.390625 "/></g></g></g><g fill="#000000" fill-opacity="1"><g transform="translate(183.453842, 127.394226)"><g><path d="M 2.15625 -13.234375 L 3.546875 -13.234375 L 3.546875 -1.203125 L 10.96875 -1.203125 L 10.96875 0 L 2.15625 0 Z M 2.15625 -13.234375 "/></g></g></g><g fill="#000000" fill-opacity="1"><g transform="translate(205.87029, 127.394226)"><g><path d="M 7.9375 0.109375 C 6.625 0.109375 5.4375 -0.179688 4.375 -0.765625 C 3.3125 -1.347656 2.476562 -2.148438 1.875 -3.171875 C 1.28125 -4.191406 0.984375 -5.34375 0.984375 -6.625 C 0.984375 -7.894531 1.28125 -9.039062 1.875 -10.0625 C 2.476562 -11.082031 3.3125 -11.882812 4.375 -12.46875 C 5.4375 -13.050781 6.625 -13.34375 7.9375 -13.34375 C 9.25 -13.34375 10.429688 -13.050781 11.484375 -12.46875 C 12.535156 -11.894531 13.363281 -11.09375 13.96875 -10.0625 C 14.570312 -9.039062 14.875 -7.894531 14.875 -6.625 C 14.875 -5.34375 14.570312 -4.1875 13.96875 -3.15625 C 13.363281 -2.132812 12.535156 -1.332031 11.484375 -0.75 C 10.429688 -0.175781 9.25 0.109375 7.9375 0.109375 Z M 7.9375 -1.140625 C 8.988281 -1.140625 9.9375 -1.375 10.78125 -1.84375 C 11.625 -2.3125 12.285156 -2.960938 12.765625 -3.796875 C 13.242188 -4.640625 13.484375 -5.582031 13.484375 -6.625 C 13.484375 -7.65625 13.242188 -8.585938 12.765625 -9.421875 C 12.285156 -10.265625 11.625 -10.921875 10.78125 -11.390625 C 9.9375 -11.859375 8.988281 -12.09375 7.9375 -12.09375 C 6.894531 -12.09375 5.945312 -11.859375 5.09375 -11.390625 C 4.238281 -10.921875 3.566406 -10.265625 3.078125 -9.421875 C 2.597656 -8.585938 2.359375 -7.65625 2.359375 -6.625 C 2.359375 -5.582031 2.597656 -4.640625 3.078125 -3.796875 C 3.566406 -2.960938 4.238281 -2.3125 5.09375 -1.84375 C 5.945312 -1.375 6.894531 -1.140625 7.9375 -1.140625 Z M 7.9375 -1.140625 "/></g></g></g><g fill="#000000" fill-opacity="1"><g transform="translate(233.010692, 127.394226)"><g><path d="M 4.734375 -12.03125 L 0.078125 -12.03125 L 0.078125 -13.234375 L 10.78125 -13.234375 L 10.78125 -12.03125 L 6.125 -12.03125 L 6.125 0 L 4.734375 0 Z M 4.734375 -12.03125 "/></g></g></g><g fill="#000000" fill-opacity="1"><g transform="translate(255.14369, 127.394226)"><g><path d="M 4.734375 -12.03125 L 0.078125 -12.03125 L 0.078125 -13.234375 L 10.78125 -13.234375 L 10.78125 -12.03125 L 6.125 -12.03125 L 6.125 0 L 4.734375 0 Z M 4.734375 -12.03125 "/></g></g></g><g fill="#000000" fill-opacity="1"><g transform="translate(277.276688, 127.394226)"><g><path d="M 11.515625 -1.203125 L 11.515625 0 L 2.15625 0 L 2.15625 -13.234375 L 11.234375 -13.234375 L 11.234375 -12.03125 L 3.546875 -12.03125 L 3.546875 -7.3125 L 10.40625 -7.3125 L 10.40625 -6.125 L 3.546875 -6.125 L 3.546875 -1.203125 Z M 11.515625 -1.203125 "/></g></g></g><g fill="#000000" fill-opacity="1"><g transform="translate(82.148228, 153.683998)"><g><path d="M 15.90625 -13.234375 L 15.90625 0 L 14.5625 0 L 14.5625 -10.59375 L 9.359375 -1.6875 L 8.703125 -1.6875 L 3.5 -10.53125 L 3.5 0 L 2.15625 0 L 2.15625 -13.234375 L 3.3125 -13.234375 L 9.0625 -3.421875 L 14.75 -13.234375 Z M 15.90625 -13.234375 "/></g></g></g><g fill="#000000" fill-opacity="1"><g transform="translate(111.480547, 153.683998)"><g><path d="M 10.453125 -3.53125 L 3.078125 -3.53125 L 1.5 0 L 0.03125 0 L 6.09375 -13.234375 L 7.46875 -13.234375 L 13.515625 0 L 12.046875 0 Z M 9.9375 -4.671875 L 6.765625 -11.78125 L 3.59375 -4.671875 Z M 9.9375 -4.671875 "/></g></g></g><g fill="#000000" fill-opacity="1"><g transform="translate(136.315659, 153.683998)"><g><path d="M 13.21875 -13.234375 L 13.21875 0 L 12.0625 0 L 3.546875 -10.734375 L 3.546875 0 L 2.15625 0 L 2.15625 -13.234375 L 3.3125 -13.234375 L 11.828125 -2.5 L 11.828125 -13.234375 Z M 13.21875 -13.234375 "/></g></g></g><g fill="#000000" fill-opacity="1"><g transform="translate(162.964766, 153.683998)"><g><path d="M 11.46875 -6.625 L 12.8125 -6.625 L 12.8125 -1.5625 C 12.195312 -1.019531 11.46875 -0.601562 10.625 -0.3125 C 9.78125 -0.03125 8.890625 0.109375 7.953125 0.109375 C 6.628906 0.109375 5.4375 -0.175781 4.375 -0.75 C 3.320312 -1.332031 2.492188 -2.132812 1.890625 -3.15625 C 1.285156 -4.1875 0.984375 -5.34375 0.984375 -6.625 C 0.984375 -7.894531 1.285156 -9.039062 1.890625 -10.0625 C 2.492188 -11.09375 3.320312 -11.894531 4.375 -12.46875 C 5.4375 -13.050781 6.640625 -13.34375 7.984375 -13.34375 C 8.984375 -13.34375 9.90625 -13.179688 10.75 -12.859375 C 11.601562 -12.546875 12.316406 -12.070312 12.890625 -11.4375 L 12.03125 -10.546875 C 10.976562 -11.578125 9.644531 -12.09375 8.03125 -12.09375 C 6.957031 -12.09375 5.988281 -11.859375 5.125 -11.390625 C 4.269531 -10.921875 3.59375 -10.265625 3.09375 -9.421875 C 2.601562 -8.585938 2.359375 -7.65625 2.359375 -6.625 C 2.359375 -5.582031 2.601562 -4.644531 3.09375 -3.8125 C 3.59375 -2.988281 4.269531 -2.335938 5.125 -1.859375 C 5.976562 -1.378906 6.941406 -1.140625 8.015625 -1.140625 C 9.378906 -1.140625 10.53125 -1.476562 11.46875 -2.15625 Z M 11.46875 -6.625 "/></g></g></g><g fill="#000000" fill-opacity="1"><g transform="translate(188.85805, 153.683998)"><g><path d="M 11.515625 -1.203125 L 11.515625 0 L 2.15625 0 L 2.15625 -13.234375 L 11.234375 -13.234375 L 11.234375 -12.03125 L 3.546875 -12.03125 L 3.546875 -7.3125 L 10.40625 -7.3125 L 10.40625 -6.125 L 3.546875 -6.125 L 3.546875 -1.203125 Z M 11.515625 -1.203125 "/></g></g></g><g fill="#000000" fill-opacity="1"><g transform="translate(212.786156, 153.683998)"><g><path d="M 2.15625 -13.234375 L 3.546875 -13.234375 L 3.546875 -1.203125 L 10.96875 -1.203125 L 10.96875 0 L 2.15625 0 Z M 2.15625 -13.234375 "/></g></g></g><g fill="#000000" fill-opacity="1"><g transform="translate(235.202595, 153.683998)"><g><path d="M 5.796875 0.109375 C 4.816406 0.109375 3.875 -0.046875 2.96875 -0.359375 C 2.070312 -0.671875 1.378906 -1.085938 0.890625 -1.609375 L 1.4375 -2.6875 C 1.914062 -2.207031 2.550781 -1.816406 3.34375 -1.515625 C 4.132812 -1.222656 4.953125 -1.078125 5.796875 -1.078125 C 6.984375 -1.078125 7.875 -1.289062 8.46875 -1.71875 C 9.0625 -2.15625 9.359375 -2.722656 9.359375 -3.421875 C 9.359375 -3.953125 9.195312 -4.375 8.875 -4.6875 C 8.550781 -5 8.15625 -5.238281 7.6875 -5.40625 C 7.226562 -5.582031 6.582031 -5.769531 5.75 -5.96875 C 4.75 -6.226562 3.953125 -6.472656 3.359375 -6.703125 C 2.773438 -6.929688 2.269531 -7.285156 1.84375 -7.765625 C 1.414062 -8.242188 1.203125 -8.894531 1.203125 -9.71875 C 1.203125 -10.382812 1.378906 -10.988281 1.734375 -11.53125 C 2.085938 -12.082031 2.628906 -12.519531 3.359375 -12.84375 C 4.097656 -13.175781 5.007812 -13.34375 6.09375 -13.34375 C 6.84375 -13.34375 7.578125 -13.238281 8.296875 -13.03125 C 9.023438 -12.820312 9.65625 -12.535156 10.1875 -12.171875 L 9.71875 -11.0625 C 9.164062 -11.425781 8.570312 -11.695312 7.9375 -11.875 C 7.3125 -12.0625 6.695312 -12.15625 6.09375 -12.15625 C 4.925781 -12.15625 4.050781 -11.929688 3.46875 -11.484375 C 2.882812 -11.035156 2.59375 -10.457031 2.59375 -9.75 C 2.59375 -9.226562 2.75 -8.804688 3.0625 -8.484375 C 3.382812 -8.160156 3.789062 -7.910156 4.28125 -7.734375 C 4.769531 -7.566406 5.421875 -7.382812 6.234375 -7.1875 C 7.203125 -6.945312 7.984375 -6.707031 8.578125 -6.46875 C 9.179688 -6.238281 9.691406 -5.882812 10.109375 -5.40625 C 10.523438 -4.9375 10.734375 -4.300781 10.734375 -3.5 C 10.734375 -2.832031 10.550781 -2.222656 10.1875 -1.671875 C 9.832031 -1.117188 9.285156 -0.679688 8.546875 -0.359375 C 7.804688 -0.046875 6.890625 0.109375 5.796875 0.109375 Z M 5.796875 0.109375 "/></g></g></g><g fill="#000000" fill-opacity="1"><g transform="translate(258.110329, 153.683998)"><g><path d="M 7.90625 0.109375 C 6.59375 0.109375 5.410156 -0.175781 4.359375 -0.75 C 3.304688 -1.332031 2.476562 -2.132812 1.875 -3.15625 C 1.28125 -4.1875 0.984375 -5.34375 0.984375 -6.625 C 0.984375 -7.894531 1.28125 -9.039062 1.875 -10.0625 C 2.476562 -11.09375 3.304688 -11.894531 4.359375 -12.46875 C 5.421875 -13.050781 6.609375 -13.34375 7.921875 -13.34375 C 8.898438 -13.34375 9.804688 -13.175781 10.640625 -12.84375 C 11.472656 -12.519531 12.179688 -12.046875 12.765625 -11.421875 L 11.875 -10.53125 C 10.84375 -11.570312 9.535156 -12.09375 7.953125 -12.09375 C 6.910156 -12.09375 5.957031 -11.851562 5.09375 -11.375 C 4.238281 -10.894531 3.566406 -10.238281 3.078125 -9.40625 C 2.597656 -8.582031 2.359375 -7.65625 2.359375 -6.625 C 2.359375 -5.582031 2.597656 -4.644531 3.078125 -3.8125 C 3.566406 -2.988281 4.238281 -2.335938 5.09375 -1.859375 C 5.957031 -1.378906 6.910156 -1.140625 7.953125 -1.140625 C 9.546875 -1.140625 10.851562 -1.664062 11.875 -2.71875 L 12.765625 -1.828125 C 12.179688 -1.203125 11.46875 -0.722656 10.625 -0.390625 C 9.789062 -0.0546875 8.882812 0.109375 7.90625 0.109375 Z M 7.90625 0.109375 "/></g></g></g><g fill="#000000" fill-opacity="1"><g transform="translate(282.983239, 153.683998)"><g><path d="M 13.21875 -13.234375 L 13.21875 0 L 11.828125 0 L 11.828125 -6.109375 L 3.546875 -6.109375 L 3.546875 0 L 2.15625 0 L 2.15625 -13.234375 L 3.546875 -13.234375 L 3.546875 -7.328125 L 11.828125 -7.328125 L 11.828125 -13.234375 Z M 13.21875 -13.234375 "/></g></g></g><g fill="#000000" fill-opacity="1"><g transform="translate(309.632346, 153.683998)"><g><path d="M 7.9375 0.109375 C 6.625 0.109375 5.4375 -0.179688 4.375 -0.765625 C 3.3125 -1.347656 2.476562 -2.148438 1.875 -3.171875 C 1.28125 -4.191406 0.984375 -5.34375 0.984375 -6.625 C 0.984375 -7.894531 1.28125 -9.039062 1.875 -10.0625 C 2.476562 -11.082031 3.3125 -11.882812 4.375 -12.46875 C 5.4375 -13.050781 6.625 -13.34375 7.9375 -13.34375 C 9.25 -13.34375 10.429688 -13.050781 11.484375 -12.46875 C 12.535156 -11.894531 13.363281 -11.09375 13.96875 -10.0625 C 14.570312 -9.039062 14.875 -7.894531 14.875 -6.625 C 14.875 -5.34375 14.570312 -4.1875 13.96875 -3.15625 C 13.363281 -2.132812 12.535156 -1.332031 11.484375 -0.75 C 10.429688 -0.175781 9.25 0.109375 7.9375 0.109375 Z M 7.9375 -1.140625 C 8.988281 -1.140625 9.9375 -1.375 10.78125 -1.84375 C 11.625 -2.3125 12.285156 -2.960938 12.765625 -3.796875 C 13.242188 -4.640625 13.484375 -5.582031 13.484375 -6.625 C 13.484375 -7.65625 13.242188 -8.585938 12.765625 -9.421875 C 12.285156 -10.265625 11.625 -10.921875 10.78125 -11.390625 C 9.9375 -11.859375 8.988281 -12.09375 7.9375 -12.09375 C 6.894531 -12.09375 5.945312 -11.859375 5.09375 -11.390625 C 4.238281 -10.921875 3.566406 -10.265625 3.078125 -9.421875 C 2.597656 -8.585938 2.359375 -7.65625 2.359375 -6.625 C 2.359375 -5.582031 2.597656 -4.640625 3.078125 -3.796875 C 3.566406 -2.960938 4.238281 -2.3125 5.09375 -1.84375 C 5.945312 -1.375 6.894531 -1.140625 7.9375 -1.140625 Z M 7.9375 -1.140625 "/></g></g></g><g fill="#000000" fill-opacity="1"><g transform="translate(336.772748, 153.683998)"><g><path d="M 4.734375 -12.03125 L 0.078125 -12.03125 L 0.078125 -13.234375 L 10.78125 -13.234375 L 10.78125 -12.03125 L 6.125 -12.03125 L 6.125 0 L 4.734375 0 Z M 4.734375 -12.03125 "/></g></g></g><g fill="#000000" fill-opacity="1"><g transform="translate(358.905746, 153.683998)"><g><path d="M 5.796875 0.109375 C 4.816406 0.109375 3.875 -0.046875 2.96875 -0.359375 C 2.070312 -0.671875 1.378906 -1.085938 0.890625 -1.609375 L 1.4375 -2.6875 C 1.914062 -2.207031 2.550781 -1.816406 3.34375 -1.515625 C 4.132812 -1.222656 4.953125 -1.078125 5.796875 -1.078125 C 6.984375 -1.078125 7.875 -1.289062 8.46875 -1.71875 C 9.0625 -2.15625 9.359375 -2.722656 9.359375 -3.421875 C 9.359375 -3.953125 9.195312 -4.375 8.875 -4.6875 C 8.550781 -5 8.15625 -5.238281 7.6875 -5.40625 C 7.226562 -5.582031 6.582031 -5.769531 5.75 -5.96875 C 4.75 -6.226562 3.953125 -6.472656 3.359375 -6.703125 C 2.773438 -6.929688 2.269531 -7.285156 1.84375 -7.765625 C 1.414062 -8.242188 1.203125 -8.894531 1.203125 -9.71875 C 1.203125 -10.382812 1.378906 -10.988281 1.734375 -11.53125 C 2.085938 -12.082031 2.628906 -12.519531 3.359375 -12.84375 C 4.097656 -13.175781 5.007812 -13.34375 6.09375 -13.34375 C 6.84375 -13.34375 7.578125 -13.238281 8.296875 -13.03125 C 9.023438 -12.820312 9.65625 -12.535156 10.1875 -12.171875 L 9.71875 -11.0625 C 9.164062 -11.425781 8.570312 -11.695312 7.9375 -11.875 C 7.3125 -12.0625 6.695312 -12.15625 6.09375 -12.15625 C 4.925781 -12.15625 4.050781 -11.929688 3.46875 -11.484375 C 2.882812 -11.035156 2.59375 -10.457031 2.59375 -9.75 C 2.59375 -9.226562 2.75 -8.804688 3.0625 -8.484375 C 3.382812 -8.160156 3.789062 -7.910156 4.28125 -7.734375 C 4.769531 -7.566406 5.421875 -7.382812 6.234375 -7.1875 C 7.203125 -6.945312 7.984375 -6.707031 8.578125 -6.46875 C 9.179688 -6.238281 9.691406 -5.882812 10.109375 -5.40625 C 10.523438 -4.9375 10.734375 -4.300781 10.734375 -3.5 C 10.734375 -2.832031 10.550781 -2.222656 10.1875 -1.671875 C 9.832031 -1.117188 9.285156 -0.679688 8.546875 -0.359375 C 7.804688 -0.046875 6.890625 0.109375 5.796875 0.109375 Z M 5.796875 0.109375 "/></g></g></g></svg>
